<svg width="21" height="21" viewBox="0 0 21 21" fill="none" xmlns="http://www.w3.org/2000/svg">
<path d="M19.725 18.312L16.015 14.632C17.4551 12.8364 18.1525 10.5573 17.9639 8.2633C17.7752 5.9693 16.7147 3.83478 15.0006 2.29864C13.2864 0.762505 11.0488 -0.0584908 8.74796 0.0044696C6.44708 0.06743 4.25776 1.00956 2.63018 2.63714C1.0026 4.26472 0.060472 6.45404 -0.00248841 8.75492C-0.0654488 11.0558 0.755547 13.2934 2.29169 15.0075C3.82782 16.7217 5.96234 17.7821 8.25634 17.9708C10.5503 18.1595 12.8295 17.4621 14.625 16.022L18.305 19.702C18.3952 19.7999 18.5041 19.8787 18.6253 19.9337C18.7464 19.9887 18.8774 20.0188 19.0105 20.0222C19.1435 20.0257 19.2759 20.0024 19.3997 19.9537C19.5236 19.905 19.6364 19.832 19.7315 19.7389C19.8266 19.6458 19.902 19.5346 19.9533 19.4118C20.0046 19.289 20.0307 19.1572 20.0301 19.0241C20.0295 18.891 20.0022 18.7594 19.9498 18.6371C19.8974 18.5148 19.821 18.4042 19.725 18.312ZM9.01504 16.022C7.63057 16.022 6.27719 15.6115 5.12605 14.8423C3.97491 14.0731 3.0777 12.9799 2.54788 11.7008C2.01807 10.4217 1.87945 9.01423 2.14954 7.65637C2.41964 6.2985 3.08633 5.05122 4.06529 4.07225C5.04426 3.09328 6.29154 2.4266 7.64941 2.1565C9.00728 1.88641 10.4147 2.02503 11.6938 2.55484C12.9729 3.08466 14.0662 3.98186 14.8353 5.13301C15.6045 6.28415 16.015 7.63753 16.015 9.022C16.015 10.8785 15.2775 12.659 13.9648 13.9717C12.652 15.2845 10.8716 16.022 9.01504 16.022Z" fill="#959595"/>
</svg>
