<svg width="12" height="8" viewBox="0 0 12 8" fill="none" xmlns="http://www.w3.org/2000/svg">
<path d="M6 0.500001C6.11057 0.499877 6.22007 0.522104 6.32221 0.565404C6.42435 0.608704 6.51713 0.672225 6.5952 0.752316L11.7627 6.0395C11.9165 6.20184 12.0017 6.41953 12 6.64558C11.9982 6.87163 11.9097 7.08792 11.7534 7.24777C11.5972 7.40761 11.3857 7.4982 11.1648 7.49997C10.9438 7.50175 10.731 7.41458 10.5723 7.25726L6 2.57896L1.42768 7.25726C1.26899 7.41458 1.05619 7.50175 0.835222 7.49997C0.614252 7.49819 0.402824 7.40761 0.246571 7.24776C0.0903159 7.08792 0.00176435 6.87163 2.67767e-05 6.64558C-0.0017108 6.41953 0.0835048 6.20184 0.237283 6.0395L5.4048 0.752316C5.48288 0.672225 5.57565 0.608704 5.67779 0.565404C5.77994 0.522104 5.88943 0.499877 6 0.500001Z" fill="#959595"/>
</svg>
